# xmcd
#
# Track frame offsets:
#	150
#	17281
#	32163
#	46826
#	60876
#	76255
#	93146
#	108496
#	122908
#	136656
#	155430
#	172422
#	181610
#	202106
#	217979
#
# Disc length: 2981 seconds
#
# Revision: 1
# Processed by: cddbd v1.5PL3 Copyright (c) Steve Scherf et al.
# Submitted via: audiograbber 1.82.02
#
DISCID=b80ba30f
DTITLE=Bellinger, Graham - Old Blue Suit
DYEAR=2003
DGENRE=Blues
TTITLE0=Pickin' the Blues
TTITLE1=Richland Woman Blues
TTITLE2=I Ain't Got No Home
TTITLE3=Turn Your Money Green
TTITLE4=Big Time Woman
TTITLE5=Hard Time Killing Floor Blues
TTITLE6=Big Bad Bill is Sweet William Now
TTITLE7=Brownsville Blues
TTITLE8=Hard Hearted Hannah
TTITLE9=Love in Vain
TTITLE10=Statesboro Blues
TTITLE11=The Midnight Special
TTITLE12=Ragtime Millionaire
TTITLE13=Come on in my Kitchen
TTITLE14=Extra track
EXTD=
EXTT0=
EXTT1=
EXTT2=
EXTT3=
EXTT4=
EXTT5=
EXTT6=
EXTT7=
EXTT8=
EXTT9=
EXTT10=
EXTT11=
EXTT12=
EXTT13=
EXTT14=
PLAYORDER=
